# xmcd
#
# Track frame offsets:
#	150
#	12855
#	34430
#	46397
#	61212
#	72532
#	89629
#	100065
#	114231
#	130331
#	140167
#	157754
#	172582
#
# Disc length: 2499 seconds
#
# Revision: 0
# Processed by: cddbd v1.4PL0 Copyright (c) Steve Scherf et al.
# Submitted via: dBpowerAMP V4.0
#
DISCID=ac09c10d
DTITLE=Marty Raybon - Full Circle
DYEAR=1900
DGENRE=Country
TTITLE0=Down The Road
TTITLE1=Everything
TTITLE2=That's One
TTITLE3=Summertown Road
TTITLE4=Rocky Road Blues
TTITLE5=All in The Hands Of Jesus
TTITLE6=Home Run Man
TTITLE7=Next To You, Next To Me
TTITLE8=Ghost In This House
TTITLE9=White House Blues
TTITLE10=Webster's Definition
TTITLE11=Prayer Bells Of Heaven
TTITLE12=The Last Song
EXTD=
EXTT0=
EXTT1=
EXTT2=
EXTT3=
EXTT4=
EXTT5=
EXTT6=
EXTT7=
EXTT8=
EXTT9=
EXTT10=
EXTT11=
EXTT12=
PLAYORDER=
